<svg width="360" height="437" viewBox="0 0 360 437" fill="none" xmlns="http://www.w3.org/2000/svg">
<path d="M255 163.771C255 139.64 247.099 116.498 233.033 99.4356C218.968 82.3729 199.892 72.7871 180 72.7871C160.109 72.7871 141.033 82.3729 126.967 99.4356C112.902 116.498 105 139.64 105 163.771C105 168.597 106.581 173.225 109.394 176.638C112.207 180.05 116.022 181.967 120 181.967C123.979 181.967 127.794 180.05 130.607 176.638C133.42 173.225 135 168.597 135 163.771C135 152.974 137.64 142.419 142.584 133.442C147.529 124.465 154.557 117.468 162.78 113.336C171.002 109.204 180.05 108.123 188.78 110.229C197.509 112.336 205.527 117.535 211.82 125.17C218.114 132.804 222.399 142.531 224.136 153.121C225.872 163.71 224.981 174.686 221.575 184.661C218.169 194.637 212.401 203.162 205.001 209.161C197.601 215.159 188.901 218.361 180 218.361C176.022 218.361 172.207 220.278 169.394 223.691C166.581 227.103 165 231.732 165 236.558V272.951C165 277.777 166.581 282.406 169.394 285.818C172.207 289.231 176.022 291.148 180 291.148C183.979 291.148 187.794 289.231 190.607 285.818C193.42 282.406 195 277.777 195 272.951V252.935C211.941 248.74 227.166 237.573 238.1 221.325C249.034 205.077 255.004 184.745 255 163.771Z" fill="#F2F3F4"/>
<path d="M180.001 363.934C188.285 363.934 195.001 355.788 195.001 345.738C195.001 335.688 188.285 327.541 180.001 327.541C171.717 327.541 165.001 335.688 165.001 345.738C165.001 355.788 171.717 363.934 180.001 363.934Z" fill="#F2F3F4"/>
</svg>
