<svg width="28" height="28" viewBox="0 0 28 28" fill="none" xmlns="http://www.w3.org/2000/svg">
<path d="M19.8333 4.0834C19.8333 3.92869 19.7719 3.78031 19.6625 3.67092C19.5531 3.56152 19.4047 3.50006 19.25 3.50006H16.3333C14.8646 3.4269 13.4267 3.93802 12.3337 4.92174C11.2407 5.90546 10.5814 7.28181 10.5 8.75006V11.9001H7.58333C7.42862 11.9001 7.28025 11.9615 7.17085 12.0709C7.06146 12.1803 7 12.3287 7 12.4834V15.5167C7 15.6714 7.06146 15.8198 7.17085 15.9292C7.28025 16.0386 7.42862 16.1001 7.58333 16.1001H10.5V23.9167C10.5 24.0714 10.5615 24.2198 10.6709 24.3292C10.7802 24.4386 10.9286 24.5001 11.0833 24.5001H14.5833C14.738 24.5001 14.8864 24.4386 14.9958 24.3292C15.1052 24.2198 15.1667 24.0714 15.1667 23.9167V16.1001H18.2233C18.3531 16.1019 18.4797 16.0605 18.5832 15.9823C18.6868 15.9041 18.7613 15.7937 18.795 15.6684L19.635 12.6351C19.6582 12.5489 19.6613 12.4585 19.6441 12.3709C19.6269 12.2833 19.5898 12.2009 19.5357 12.1299C19.4816 12.0589 19.412 12.0012 19.3321 11.9614C19.2522 11.9215 19.1643 11.9006 19.075 11.9001H15.1667V8.75006C15.1957 8.46129 15.3313 8.19369 15.547 7.99954C15.7628 7.80538 16.0431 7.69861 16.3333 7.70006H19.25C19.4047 7.70006 19.5531 7.6386 19.6625 7.52921C19.7719 7.41981 19.8333 7.27144 19.8333 7.11673V4.0834Z" fill="#F2F3F4"/>
</svg>
