<svg width="27" height="28" viewBox="0 0 27 28" fill="none" xmlns="http://www.w3.org/2000/svg">
<path d="M20.9352 4.66675H5.50929C4.6326 4.66675 3.79182 5.0355 3.17191 5.69187C2.552 6.34825 2.20374 7.23849 2.20374 8.16675V19.8334C2.20374 20.7617 2.552 21.6519 3.17191 22.3083C3.79182 22.9647 4.6326 23.3334 5.50929 23.3334H20.9352C21.8119 23.3334 22.6527 22.9647 23.2726 22.3083C23.8925 21.6519 24.2408 20.7617 24.2408 19.8334V8.16675C24.2408 7.23849 23.8925 6.34825 23.2726 5.69187C22.6527 5.0355 21.8119 4.66675 20.9352 4.66675ZM20.9352 7.00008L13.7732 12.2151C13.6057 12.3175 13.4157 12.3714 13.2223 12.3714C13.0288 12.3714 12.8388 12.3175 12.6713 12.2151L5.50929 7.00008H20.9352Z" fill="#F2F3F4"/>
</svg>
