<svg width="32" height="32" viewBox="0 0 32 32" fill="none" xmlns="http://www.w3.org/2000/svg">
<path d="M11.3466 26.6666H11.2399C9.09108 26.6478 6.9733 26.1514 5.03994 25.2133C4.6843 25.0462 4.39148 24.7697 4.20434 24.4242C4.0172 24.0787 3.94557 23.6824 3.99994 23.2933C4.05906 22.9015 4.24046 22.5384 4.51821 22.2559C4.79597 21.9733 5.1559 21.7858 5.5466 21.7199C6.74475 21.5601 7.89739 21.1562 8.93327 20.5333C7.13482 19.1272 5.75027 17.2607 4.92636 15.1317C4.10245 13.0027 3.86987 10.6904 4.25327 8.43995C4.30526 8.08348 4.45856 7.74946 4.69494 7.47762C4.93131 7.20579 5.24081 7.00759 5.58661 6.90661C5.92302 6.80096 6.28307 6.79644 6.62203 6.89363C6.96099 6.99081 7.26394 7.18542 7.49327 7.45328C8.27194 8.47432 9.25046 9.32603 10.3691 9.95643C11.4878 10.5868 12.7232 10.9827 13.9999 11.1199C14.0609 9.54908 14.736 8.0649 15.8799 6.98661C16.4511 6.43964 17.1255 6.01183 17.8637 5.72809C18.6019 5.44435 19.3892 5.31037 20.1797 5.33395C20.9702 5.35753 21.7481 5.5382 22.4681 5.86543C23.188 6.19266 23.8357 6.65991 24.3733 7.23995C24.5133 7.36377 24.6873 7.44268 24.8728 7.46645C25.0582 7.49023 25.2465 7.45777 25.4133 7.37328C25.7312 7.22334 26.0852 7.1669 26.4339 7.21054C26.7827 7.25418 27.1119 7.3961 27.3831 7.61974C27.6542 7.84338 27.8562 8.13953 27.9654 8.47362C28.0747 8.80771 28.0866 9.16598 27.9999 9.50661C27.6924 10.7734 27.1097 11.957 26.2933 12.9733C26.1133 16.7663 24.4411 20.3343 21.6412 22.8994C18.8413 25.4645 15.1408 26.8187 11.3466 26.6666ZM11.3466 23.9999H11.4533C13.0035 24.0533 14.5489 23.7983 15.9998 23.2499C17.4508 22.7015 18.7785 21.8705 19.9059 20.8051C21.0332 19.7397 21.9379 18.4612 22.5675 17.0435C23.197 15.6259 23.5389 14.0974 23.5733 12.5466C23.5953 12.1216 23.7705 11.719 24.0666 11.4133C24.3918 11.0016 24.6691 10.5543 24.8933 10.0799C24.4129 10.0809 23.9378 9.98038 23.499 9.78509C23.0601 9.58979 22.6675 9.30407 22.3466 8.94661C22.0381 8.64068 21.6716 8.39938 21.2687 8.23683C20.8657 8.07428 20.4344 7.99375 19.9999 7.99995C19.5611 7.9886 19.1244 8.06403 18.7148 8.22191C18.3053 8.37979 17.9309 8.61701 17.6133 8.91995C17.1847 9.32661 16.8705 9.8387 16.702 10.405C16.5335 10.9712 16.5167 11.5718 16.6533 12.1466L16.9999 13.6666L15.4399 13.7733C13.8414 13.9036 12.2336 13.685 10.728 13.1324C9.22229 12.5799 7.85472 11.7067 6.71994 10.5733C6.67127 12.3285 7.11034 14.0628 7.98833 15.5834C8.86632 17.104 10.1488 18.3513 11.6933 19.1866L12.9599 19.9066L12.1199 21.1066C11.2115 22.298 9.96685 23.1897 8.5466 23.6666C9.45769 23.895 10.394 24.007 11.3333 23.9999H11.3466Z" fill="#F2F3F4"/>
</svg>
